# AST/ASF file generated using VICON BodyLanguage
# -----------------------------------------------
:version 1.10
:name VICON
:units
  mass 1.0
  length 0.45
  angle deg
:documentation
   .ast/.asf automatically generated from VICON data using
   VICON BodyBuilder and BodyLanguage model FoxedUp or BRILLIANT.MOD
:root
   order TX TY TZ RX RY RZ
   axis XYZ
   position 0 0 0  
   orientation 0 0 0 
:bonedata
  begin
     id 1 
     name lhipjoint
     direction 0.671379 -0.66392 0.329334 
     length 2.38647 
     axis 0 0 0  XYZ
  end
  begin
     id 2 
     name lfemur
     direction 0.34202 -0.939693 0  
     length 6.48179  
     axis 0 0 20  XYZ
    dof rx ry rz
    limits (-160.0 20.0)
           (-70.0 70.0)
           (-60.0 70.0)
  end
  begin
     id 3 
     name ltibia
     direction 0.34202 -0.939693 0   
     length 6.86524   
     axis 0 0 20   XYZ
    dof rx
    limits (-10.0 170.0)
  end
  begin
     id 4 
     name lfoot
     direction 0.204886 -0.562919 0.800715   
     length 1.73031   
     axis -90 7.62852e-016 20   XYZ
    dof rx rz
    limits (-45.0 90.0)
           (-70.0 20.0)
  end
  begin
     id 5 
     name ltoes
     direction 1.53548e-011 -4.21841e-011 1   
     length 0.828161   
     axis -90 7.62852e-016 20   XYZ
    dof rx
    limits (-90.0 20.0)
  end
  begin
     id 6 
     name rhipjoint
     direction -0.662732 -0.670855 0.332775   
     length 2.3618  
     axis 0 0 0  XYZ 
  end
  begin
     id 7 
     name rfemur
     direction -0.34202 -0.939693 0   
     length 6.3025   
     axis 0 0 -20   XYZ
    dof rx ry rz
    limits (-160.0 20.0)
           (-70.0 70.0)
           (-70.0 60.0)
  end
  begin
     id 8 
     name rtibia
     direction -0.34202 -0.939693 0   
     length 6.8732   
     axis 0 0 -20   XYZ
    dof rx
    limits (-10.0 170.0)
 end
 begin
     id 9 
     name rfoot
     direction -0.173856 -0.477665 0.861168   
     length 1.54784  
     axis -90 -7.62852e-016 -20   XYZ
    dof rx rz
    limits (-45.0 90.0)
           (-20.0 70.0)
  end
  begin
     id 10 
     name rtoes
     direction -1.53562e-011 -4.21802e-011 1   
     length 0.759618   
     axis -90 -7.62852e-016 -20   XYZ
    dof rx
    limits (-90.0 20.0)
  end
  begin
     id 11 
     name lowerback
     direction -0.0278357 0.999497 -0.0151789   
     length 1.97203   
     axis 0 0 0   XYZ
    dof rx ry rz
    limits (-20.0 45.0)
           (-30.0 30.0)
           (-30.0 30.0)
  end
  begin
     id 12 
     name upperback
     direction -0.00360622 0.997542 0.0699804   
     length 1.94709   
     axis 0 0 0   XYZ
    dof rx ry rz
    limits (-20.0 45.0)
           (-30.0 30.0)
           (-30.0 30.0)
  end
  begin
     id 13 
     name thorax
     direction 0.00907706 0.997048 0.0762461   
     length 1.95722   
     axis 0 0 0   XYZ
    dof rx ry rz
    limits (-20.0 45.0)
           (-30.0 30.0)
           (-30.0 30.0)
  end
  begin
     id 14 
     name lowerneck
     direction -0.0481835 0.99872 -0.0153927   
     length 1.63078   
     axis 0 0 0   XYZ
    dof rx ry rz
    limits (-20.0 45.0)
           (-30.0 30.0)
           (-30.0 30.0)
  end
  begin
     id 15 
     name upperneck
     direction 0.0859716 0.979226 -0.183644   
     length 1.62591   
     axis 0 0 0   XYZ
    dof rx ry rz
    limits (-20.0 45.0)
           (-30.0 30.0)
           (-30.0 30.0)
  end
  begin
     id 16
     name head
     direction 0.0324821 0.997629 -0.0606773  
     length 1.64811  
     axis 0 0 0   XYZ
    dof rx ry rz
    limits (-20.0 45.0)
           (-30.0 30.0)
           (-30.0 30.0)
  end
  begin
     id 17 
     name lclavicle
     direction 0.939609 0.311019 0.142835  
     length 3.70647  
     axis 0 0 0   XYZ
    dof ry rz
    limits (-20.0 10.0)
           (0.0 20.0)
  end
  begin
     id 18 
     name lhumerus
     direction 1 -4.48963e-011 -1.59838e-027   
     length 4.59207   
     axis 180 -30 -90   XYZ
    dof rx ry rz
    limits (-60.0 90.0)
           (-90.0 90.0)
           (-90.0 90.0)
  end
  begin
     id 19
     name lradius
     direction 1 -4.48957e-011 -1.3483e-026   
     length 2.98109   
     axis 180 -30 -90   XYZ
    dof rx
    limits (-10.0 170.0)
  end
  begin
     id 20
     name lwrist
     direction 1 -4.48954e-011 -3.11579e-026   
     length 1.49055   
     axis 2.00652e-014 90 90   XYZ
    dof ry
    limits (-180.0 0.0)
 end
  begin
     id 21 
     name lhand
     direction 1 -4.4911e-011 -6.23158e-026   
     length 0.480203   
     axis 3.97628e-014 90 90   XYZ
    dof rx rz
    limits (-90.0 90.0)
           (-45.0 45.0)
  end
  begin
     id 22 
     name lfingers
     direction 1 -4.48893e-011 -1.24632e-025   
     length 0.387152   
     axis 7.95256e-014 90 90   XYZ
    dof rx
    limits (0.0 90.0)
  end
  begin
     id 23
     name lthumb
     direction 0.707107 -6.35013e-011 0.707107   
     length 0.555875   
     axis -90 45 2.85299e-015   XYZ
    dof rx rz
    limits (-45.0 45.0)
           (-45.0 45.0)
  end
  begin
     id 24 
     name rclavicle
     direction -0.950396 0.30392 0.0661859   
     length 3.70894  
     axis 0 0 0   XYZ 
    dof ry rz
    limits (-10.0 20.0)
           (-20.0 0.0)
  end
  begin
     id 25 
     name rhumerus
     direction -1 -4.48957e-011 -2.96677e-027  
     length 4.76508   
     axis 180 30 90   XYZ
    dof rx ry rz
    limits (-90.0 60.0)
           (-90.0 90.0)
           (-90.0 90.0)
  end
  begin
     id 26 
     name rradius
     direction -1 -4.48974e-011 -1.44501e-026   
     length 2.78902   
     axis 180 30 90   XYZ
    dof rx
    limits (-10.0 170.0)
  end
  begin
     id 27 
     name rwrist
     direction -1 -4.48978e-011 -3.11579e-026   
     length 1.39451   
     axis 2.00652e-014 -90 -90   XYZ
    dof ry
    limits (-180.0 0.0)
  end
  begin
     id 28
     name rhand
     direction -1 -4.48956e-011 -6.23158e-026   
     length 0.721303   
     axis 3.97628e-014 -90 -90   XYZ
    dof rx rz
    limits (-90.0 90.0)
           (-45.0 45.0)
  end
  begin
     id 29
     name rfingers
     direction -1 -4.4899e-011 -1.24632e-025   
     length 0.581533   
     axis 7.95256e-014 -90 -90   XYZ
    dof rx
    limits (0.0 90.0)
  end
  begin
     id 30
     name rthumb
     direction -0.707107 -6.34911e-011 0.707107   
     length 0.834968   
     axis -90 -45 -2.85299e-015   XYZ
    dof rx rz
    limits (-45.0 45.0)
           (-45.0 45.0)
  end
:hierarchy
  begin
    root lhipjoint rhipjoint lowerback
    lhipjoint lfemur
    lfemur ltibia
    ltibia lfoot
    lfoot ltoes
    rhipjoint rfemur
    rfemur rtibia
    rtibia rfoot
    rfoot rtoes
    lowerback upperback
    upperback thorax
    thorax lowerneck lclavicle rclavicle
    lowerneck upperneck
    upperneck head
    lclavicle lhumerus
    lhumerus lradius
    lradius lwrist
    lwrist lhand lthumb
    lhand lfingers
    rclavicle rhumerus
    rhumerus rradius
    rradius rwrist
    rwrist rhand rthumb
    rhand rfingers
  end

#!OML:ASF I:\salsa\salsa 7_09\Patient 1\Session 1\dancerfemale.ASF
:FULLY-SPECIFIED
:DEGREES
421
root 11.1482 15.699 -1.30096 -325.236 -76.5498 320.613
lowerback 5.33355 1.10854 5.12669
upperback -4.97692 1.87728 -0.46571
thorax -8.07003 0.586284 -3.59413
lowerneck -1.50456 -6.06449 -6.74422
upperneck 0.46163 -8.56327 16.9508
head 1.44027 -4.26893 6.0134
rclavicle 1.51076e-014 6.36111e-015
rhumerus 28.189 -22.5588 -36.3965
rradius 60.5428
rwrist -17.9248
rhand -8.66571 47.9284
rfingers 7.12502
rthumb 17.2682 18.6756
lclavicle 1.51076e-014 6.36111e-015
lhumerus -44.6053 -28.1159 97.3496
lradius 81.6148
lwrist -35.8505
lhand -33.0293 6.48888
lfingers 7.12502
lthumb -6.2425 36.3769
rfemur -9.71913 -8.87954 33.5027
rtibia 28.8309
rfoot -17.15 1.69829
rtoes -3.18218
lfemur -24.9245 0.430005 -4.92577
ltibia 78.1292
lfoot -6.16605 7.00642
ltoes -27.7736
422
root 10.994 15.6507 -1.32318 -317.846 -77.8978 313.436
lowerback 5.61162 1.15917 5.5955
upperback -4.86121 2.01385 -0.333119
thorax -8.08777 0.632501 -3.7397
lowerneck -1.90997 -5.53438 -5.93163
upperneck -0.0267058 -7.74046 16.1107
head 1.19861 -3.8612 5.6492
rclavicle 2.18663e-015 -1.51076e-014
rhumerus 29.2584 -21.9288 -35.4745
rradius 61.6069
rwrist -18.7594
rhand -8.69502 47.3185
rfingers 7.12502
rthumb 17.24 18.0632
lclavicle 2.18663e-015 -1.51076e-014
lhumerus -44.2991 -28.0227 97.0067
lradius 81.5687
lwrist -35.5179
lhand -33.0497 6.88385
lfingers 7.12502
lthumb -6.26219 36.7713
rfemur -9.72593 -8.85719 33.9666
rtibia 29.6125
rfoot -16.6842 3.61827
rtoes -0.604763
lfemur -26.9527 1.0058 -4.85322
ltibia 77.5904
lfoot -8.67791 8.29827
ltoes -29.9208
423
root 10.8359 15.6217 -1.34687 -308.765 -79.4191 304.717
lowerback 5.78747 1.29959 5.69582
upperback -4.84501 2.22266 -0.335279
thorax -8.14847 0.726881 -3.82883
lowerneck -2.47897 -4.96025 -5.30101
upperneck -0.12658 -6.93178 15.5966
head 1.13135 -3.44198 5.4035
rclavicle 8.74653e-015 -2.94201e-014
rhumerus 29.9783 -21.045 -34.1697
rradius 62.714
rwrist -19.9751
rhand -9.02473 46.7372
rfingers 7.12502
rthumb 16.9226 17.4545
lclavicle 8.74653e-015 -2.94201e-014
lhumerus -44.01 -27.8016 96.5371
lradius 81.605
lwrist -35.2368
lhand -32.1203 7.29928
lfingers 7.12502
lthumb -5.36492 37.2114
rfemur -9.83518 -8.88898 34.0331
rtibia 30.411
rfoot -16.4688 5.75866
rtoes 0.59252
lfemur -28.594 1.3904 -5.06963
ltibia 76.2
lfoot -10.9811 10.173
ltoes -31.0447
424
root 10.6754 15.6088 -1.36601 -296.631 -81.0424 292.952
lowerback 5.99753 1.44491 5.47045
upperback -4.8683 2.40499 -0.402516
thorax -8.28111 0.821654 -3.80414
lowerneck -3.01635 -4.28675 -4.79726
upperneck -0.168116 -5.99647 15.0245
head 1.07385 -2.95929 5.16575
rclavicle 1.98785e-015 -7.95139e-016
rhumerus 30.8401 -20.0707 -32.8272
rradius 63.9693
rwrist -22.1
rhand -8.53766 45.7651
rfingers 7.12502
rthumb 17.3914 16.5231
lclavicle 1.98785e-015 -7.95139e-016
lhumerus -43.8509 -27.1843 95.9075
lradius 81.7473
lwrist -34.9643
lhand -32.0573 8.75059
lfingers 7.12502
lthumb -5.30407 38.6642
rfemur -9.79846 -8.96501 33.647
rtibia 30.9932
rfoot -16.0116 8.29536
rtoes 0.88052
lfemur -29.7468 1.40457 -5.5689
ltibia 74.0469
lfoot -12.945 12.432
ltoes -30.4941
425
root 10.5068 15.6093 -1.37503 -277.817 -82.3142 274.53
lowerback 6.11559 1.55261 5.22573
upperback -4.88175 2.52893 -0.444781
thorax -8.35785 0.891912 -3.7319
lowerneck -3.46817 -3.45235 -4.37319
upperneck -0.351257 -4.82002 14.2163
head 0.942678 -2.36524 4.87954
rclavicle -2.38542e-015 -1.98785e-014
rhumerus 32.2362 -19.1484 -31.8551
rradius 65.3019
rwrist -24.746
rhand -7.22572 44.4496
rfingers 7.12502
rthumb 18.6537 15.324
lclavicle -2.38542e-015 -1.98785e-014
lhumerus -43.7406 -26.0161 95.0451
lradius 81.962
lwrist -34.6447
lhand -32.1021 10.1207
lfingers 7.12502
lthumb -5.34728 40.0332
rfemur -9.6401 -9.11233 33.0079
rtibia 31.3425
rfoot -15.5394 11.3709
rtoes -1.17904
lfemur -30.491 1.18558 -6.01256
ltibia 71.3192
lfoot -14.8301 14.288
ltoes -29.6266
